<?xml version="1.0" standalone="no"?>
<!DOCTYPE svg PUBLIC "-//W3C//DTD SVG 20010904//EN"
 "http://www.w3.org/TR/2001/REC-SVG-20010904/DTD/svg10.dtd">
<svg version="1.0" xmlns="http://www.w3.org/2000/svg"
 width="338.000000pt" height="342.000000pt" viewBox="0 0 338.000000 342.000000"
 preserveAspectRatio="xMidYMid meet">

<g transform="translate(0.000000,342.000000) scale(0.100000,-0.100000)"
fill="#000000" stroke="none">
<path d="M911 3101 c-8 -5 -9 -11 -3 -15 5 -3 12 1 16 9 6 17 6 18 -13 6z"/>
<path d="M2223 3073 c-7 -3 -13 -12 -13 -20 0 -11 -6 -14 -21 -10 -12 3 -32
-1 -45 -10 -13 -8 -31 -13 -39 -9 -9 3 -15 0 -15 -8 0 -7 -7 -19 -15 -26 -13
-10 -19 -10 -35 5 -11 10 -20 24 -20 32 0 7 -6 13 -13 13 -9 0 -12 -10 -9 -30
2 -16 9 -30 14 -30 5 0 6 -4 3 -10 -3 -5 0 -7 8 -4 8 3 19 -1 26 -9 9 -12 6
-16 -18 -20 -38 -8 -41 -47 -4 -47 13 0 23 5 23 10 0 6 6 10 13 9 6 -1 20 -1
31 0 14 1 16 4 7 15 -9 11 -6 12 14 8 14 -2 28 -8 31 -13 3 -5 14 -9 24 -9 10
0 20 -5 22 -11 3 -9 9 -9 25 -1 16 9 24 8 33 -3 6 -8 9 -19 6 -24 -13 -20 15
-21 40 -2 23 18 24 22 9 27 -9 4 -26 7 -37 8 -12 1 -24 11 -29 25 -7 18 -6 22
6 18 8 -4 17 -1 21 4 3 6 17 8 31 4 16 -4 22 -2 18 5 -3 5 -13 10 -22 10 -9 0
-13 3 -10 6 4 4 20 1 36 -5 24 -11 34 -10 61 4 37 19 34 24 -35 61 -54 29
-102 43 -122 37z m-3 -92 c0 -5 -6 -11 -12 -14 -10 -3 -10 -7 1 -20 11 -15 11
-17 -2 -17 -9 0 -19 5 -22 10 -4 6 -11 8 -16 5 -18 -12 -9 8 13 26 23 21 38
24 38 10z"/>
<path d="M780 3050 c-54 -31 -100 -46 -110 -36 -7 7 -10 6 -10 -4 0 -8 -30
-35 -66 -60 -127 -88 -149 -106 -152 -128 -2 -12 2 -22 8 -22 6 0 8 -4 5 -10
-3 -5 -2 -10 3 -10 14 0 23 28 12 35 -13 8 -13 25 0 25 6 0 10 -7 10 -16 0
-11 5 -14 17 -10 15 6 14 4 -2 -14 -16 -18 -17 -20 -2 -14 11 4 17 1 17 -9 0
-9 3 -22 6 -31 4 -11 1 -16 -10 -16 -9 0 -16 7 -16 15 0 24 -29 17 -42 -10
-10 -23 -20 -30 -32 -22 -3 1 -17 -9 -32 -23 l-27 -25 19 34 c10 18 29 37 42
42 12 5 22 14 22 20 0 8 -4 8 -15 -1 -18 -15 -20 1 -2 19 9 10 7 10 -11 0 -13
-8 -26 -25 -28 -39 -3 -14 -39 -66 -80 -115 -119 -144 -182 -284 -240 -535
-17 -73 -26 -148 -29 -245 -5 -138 -3 -157 10 -82 3 21 10 35 14 33 5 -3 6
-18 3 -32 -3 -18 -1 -25 6 -20 6 3 13 -3 17 -14 8 -27 -4 -87 -15 -70 -12 20
-18 -47 -12 -142 3 -49 9 -88 13 -88 4 0 13 -16 20 -35 12 -33 13 -33 27 -14
16 24 32 16 32 -16 0 -19 4 -23 18 -19 14 5 15 4 2 -5 -13 -9 -13 -15 3 -43
12 -20 15 -34 8 -36 -7 -2 -6 -13 3 -31 19 -36 42 -131 51 -206 9 -78 42 -157
92 -224 23 -29 44 -67 47 -84 21 -104 275 -346 505 -482 164 -96 390 -174 596
-206 102 -16 336 -16 440 0 164 25 398 100 490 156 22 13 57 33 77 44 38 21
68 52 32 33 -46 -24 -136 -62 -146 -62 -15 0 -121 -52 -129 -63 -3 -4 -10 -7
-15 -6 -13 3 -67 -12 -80 -22 -6 -5 -55 -11 -110 -13 -54 -2 -92 -2 -83 0 18
5 15 44 -2 44 -5 0 -2 11 7 25 9 14 20 23 24 20 12 -8 31 21 24 38 -6 18 -34
31 -34 17 0 -6 5 -10 10 -10 19 0 10 -29 -11 -35 -23 -8 -35 1 -41 28 -3 16
-5 16 -37 -1 -48 -26 -49 -40 -7 -57 20 -9 36 -20 36 -25 0 -6 7 -10 16 -10 8
0 12 -4 9 -10 -7 -12 -52 -14 -57 -2 -1 4 -16 14 -33 22 -21 11 -33 27 -39 53
-8 32 -7 40 12 57 31 29 27 45 -13 64 -40 19 -43 31 -15 48 25 16 27 70 4 89
-15 12 -13 14 17 21 20 4 39 2 47 -5 11 -9 13 -7 10 9 -2 13 2 19 14 18 9 -1
19 7 21 17 3 11 1 19 -4 19 -5 0 -9 20 -9 45 0 42 1 44 20 33 16 -10 23 -9 43
10 13 12 26 20 28 18 11 -11 8 48 -3 61 -8 10 -8 17 0 25 7 7 15 8 19 4 4 -4
1 -11 -7 -16 -8 -6 -12 -10 -7 -10 4 0 16 5 26 12 11 6 26 8 37 3 11 -4 26 -7
34 -6 11 1 11 -1 -2 -9 -20 -12 -24 -30 -7 -30 6 0 18 -7 26 -16 14 -13 14
-17 2 -24 -7 -5 -10 -13 -5 -17 5 -4 11 -2 13 5 3 7 13 17 24 22 17 10 18 8 9
-15 -13 -33 -12 -38 0 -30 6 3 10 -1 10 -10 0 -18 23 -45 39 -45 5 0 18 16 27
36 12 25 20 32 27 25 14 -14 40 -14 32 -2 -3 6 4 15 15 21 11 6 18 15 14 21
-4 7 -10 7 -18 0 -20 -17 -86 6 -86 29 0 11 -4 20 -9 20 -5 0 -17 3 -27 7 -14
5 -16 2 -12 -15 5 -17 2 -21 -16 -19 -39 4 -50 41 -14 50 12 3 30 1 42 -5 15
-8 21 -8 24 1 2 6 10 11 18 11 14 0 18 12 15 37 -2 17 16 17 22 1 2 -7 8 -10
12 -6 4 4 3 14 -3 21 -9 10 -8 14 3 14 8 0 15 -6 15 -14 0 -15 26 -18 35 -3 3
6 -1 7 -9 4 -19 -7 -22 26 -4 44 8 8 9 12 1 12 -6 0 -19 3 -29 7 -12 4 -15 3
-10 -5 5 -8 2 -10 -8 -6 -19 7 -10 28 28 63 14 14 26 30 26 38 0 7 8 13 17 13
13 0 14 3 5 12 -15 15 -16 42 0 32 7 -4 8 -3 4 5 -5 7 -16 9 -28 5 -15 -4 -18
-3 -13 6 5 9 2 10 -13 6 -11 -4 -23 -3 -26 3 -8 12 -57 -10 -53 -24 3 -9 -34
-45 -47 -45 -3 0 0 11 6 25 9 20 9 28 -1 38 -11 10 -12 8 -7 -9 4 -15 -3 -29
-28 -53 -28 -27 -34 -30 -29 -13 3 14 -2 24 -15 31 -12 6 -23 19 -26 29 -4 13
-15 18 -36 16 -27 -2 -30 1 -30 27 0 16 -4 29 -8 29 -15 0 -30 -22 -25 -36 3
-8 -1 -14 -11 -14 -9 0 -16 -5 -16 -11 0 -5 5 -7 12 -3 6 4 8 3 5 -3 -8 -13
-67 -4 -67 11 0 21 -20 33 -46 28 -13 -2 -24 -11 -24 -19 0 -8 4 -12 9 -8 5 3
13 0 16 -6 4 -5 13 -8 21 -5 8 3 14 1 14 -4 0 -5 -9 -10 -21 -12 -20 -3 -19
-5 10 -48 17 -25 31 -48 31 -52 0 -16 -21 -7 -42 17 -12 14 -36 28 -55 31 -18
3 -31 10 -28 14 3 5 1 11 -5 15 -6 4 -4 15 5 29 39 59 24 100 -33 90 -23 -4
-33 -3 -29 3 8 12 -20 39 -30 29 -3 -3 -1 -6 5 -6 7 0 12 -5 12 -10 0 -6 -6
-9 -12 -8 -7 2 -14 -7 -16 -19 -2 -12 -11 -24 -20 -26 -15 -4 -15 -5 1 -6 9 0
18 -5 18 -11 1 -5 2 -16 3 -22 1 -7 10 -12 21 -10 18 2 19 2 3 -8 -10 -6 -18
-18 -18 -26 0 -8 -4 -13 -9 -9 -5 3 -12 1 -16 -5 -11 -18 -23 -11 -18 11 5 19
4 20 -16 10 -23 -13 -61 0 -61 20 0 6 -7 8 -16 5 -11 -4 -18 1 -21 14 -3 11
-12 20 -19 20 -17 0 -17 1 -5 34 7 18 6 28 -4 36 -8 7 -15 7 -19 1 -4 -6 -17
-5 -35 2 l-30 11 32 15 c44 21 60 39 53 57 -4 11 -14 15 -31 12 -22 -5 -23 -3
-13 10 12 14 10 14 -12 2 -14 -7 -26 -12 -28 -11 -6 5 -72 -59 -72 -70 0 -8
-4 -8 -15 1 -8 7 -15 16 -15 21 0 5 7 6 15 3 8 -4 15 -1 15 5 0 16 -21 13 -42
-6 -14 -13 -18 -13 -19 -2 -3 43 5 74 24 90 12 10 16 18 10 19 -7 0 -12 11
-11 24 2 21 5 23 17 13 12 -10 13 -9 7 8 -15 35 -18 64 -12 90 9 37 26 30 26
-10 0 -39 5 -42 30 -20 18 17 60 9 60 -11 0 -8 5 -14 11 -14 7 0 5 10 -5 25
-21 31 -20 35 4 35 14 0 20 7 20 24 0 13 10 31 23 40 12 9 16 14 10 11 -7 -3
-13 -1 -13 4 0 6 7 11 15 11 8 0 15 -4 15 -10 0 -5 5 -10 10 -10 6 0 5 8 -2
19 -7 11 -16 17 -20 14 -5 -2 -16 1 -24 8 -13 11 -18 10 -25 -3 -9 -16 -26
-17 -62 -3 -10 4 -17 4 -16 -1 5 -27 -2 -46 -15 -41 -8 3 -17 -1 -20 -9 -3 -8
-11 -14 -18 -14 -9 0 -10 2 -2 8 8 5 8 15 2 32 l-9 25 -16 -35 c-9 -22 -17
-30 -20 -21 -3 7 0 17 7 21 9 6 8 10 -6 19 -11 6 -13 11 -7 11 7 0 12 6 10 13
-1 6 4 11 11 9 8 -1 11 2 7 8 -3 5 -1 10 4 10 6 0 11 8 11 17 0 14 -3 13 -16
-5 -16 -24 -44 -30 -44 -9 0 8 -4 7 -10 -3 -8 -11 -9 -3 -5 28 6 42 6 43 -21
38 -27 -5 -47 -24 -39 -37 8 -12 -40 -4 -53 9 -20 18 -32 15 -32 -9 0 -17 -3
-19 -14 -10 -7 6 -22 8 -32 4 -18 -6 -18 -5 1 16 20 23 20 23 0 37 -18 13 -21
13 -29 -6 -10 -21 -26 -27 -26 -9 0 6 5 19 11 30 8 15 5 25 -12 47 -21 26 -22
26 -16 4 3 -15 0 -25 -8 -28 -28 -11 -35 6 -17 40 17 33 37 37 54 12 8 -13 38
54 38 85 0 14 -5 19 -15 16 -8 -4 -17 -2 -20 4 -4 5 -13 6 -22 0 -11 -6 -21
-4 -31 5 -19 20 -41 17 -37 -3 2 -10 4 -22 4 -27 1 -4 8 -5 17 -2 14 6 15 4 4
-10 -12 -14 -15 -13 -27 10 -8 14 -18 26 -24 26 -5 0 -2 10 8 23 12 17 26 23
50 22 21 0 40 6 50 17 9 10 22 18 29 18 12 0 54 50 54 65 0 4 -7 4 -16 1 -14
-5 -15 -4 -4 9 7 8 16 12 21 9 6 -3 26 11 47 30 20 20 44 36 54 36 9 0 27 15
39 33 12 17 24 34 26 36 1 2 10 -2 20 -10 15 -12 16 -12 10 4 -4 10 -7 24 -7
30 0 8 -4 7 -9 -2 -12 -19 -31 -4 -31 25 0 23 -2 24 -15 10 -20 -19 -20 -47 0
-40 25 10 17 -13 -16 -48 -21 -23 -27 -26 -20 -11 14 28 14 56 0 47 -8 -5 -8
-1 0 14 8 15 7 23 -4 32 -9 7 -15 18 -14 24 4 32 -3 46 -21 46 -11 0 -20 -7
-20 -15 0 -8 -7 -15 -15 -15 -17 0 -20 16 -5 25 5 3 7 12 3 21 -3 8 3 22 13
30 18 14 18 15 -3 9 -19 -5 -24 0 -34 37 -7 24 -17 48 -22 53 -7 7 -7 6 -3 -3
4 -7 3 -19 -3 -26 -6 -7 -12 -21 -14 -32 -2 -10 -7 -27 -11 -36 -4 -9 -4 -22
0 -29 4 -8 3 -9 -5 -5 -6 4 -19 2 -28 -6 -14 -11 -16 -11 -9 2 4 8 0 6 -9 -5
-12 -14 -16 -16 -15 -5 4 29 0 50 -10 50 -5 0 -10 -6 -10 -14 0 -8 -3 -16 -7
-19 -5 -2 -2 -2 5 -1 6 2 12 -1 12 -6 0 -14 -44 -12 -58 2 -17 17 -142 17
-142 1 0 -7 -9 -17 -19 -23 -28 -15 -39 -12 -17 5 10 8 16 20 13 28 -3 9 4 19
19 26 13 6 24 15 24 21 0 5 6 10 13 10 6 0 27 14 46 30 19 17 36 29 38 27 7
-8 -10 -38 -28 -48 -10 -5 -23 -17 -28 -27 -7 -14 -4 -17 20 -19 20 -2 29 2
29 12 0 8 5 15 11 15 5 0 8 -4 4 -9 -3 -5 8 -3 25 5 31 16 39 38 18 48 -9 3
-7 9 7 21 17 13 18 18 7 36 -7 11 -10 24 -7 29 9 15 -7 11 -29 -5 -17 -13 -18
-15 -3 -15 17 0 24 -16 10 -23 -5 -2 -20 -1 -36 2 l-27 6 22 26 c23 26 59 49
77 49 5 0 13 -9 16 -21 10 -31 27 -9 25 32 -1 19 -2 53 -2 77 0 36 -3 42 -17
36 -9 -3 -26 -9 -39 -11 -12 -3 -25 -9 -28 -14 -6 -10 -54 -12 -54 -2 0 3 7
15 17 25 15 17 15 18 -2 18 -15 0 -16 2 -4 18 13 15 12 16 -4 3 -9 -8 -25 -30
-35 -50 -12 -26 -18 -31 -20 -18 -4 18 -17 23 -27 8 -3 -5 -20 -13 -38 -17
-32 -7 -137 -53 -147 -64 -3 -3 -18 -14 -35 -24 -16 -10 -42 -30 -57 -44 -16
-14 -28 -21 -28 -15 0 6 20 29 45 52 35 32 40 41 25 41 -15 0 -20 7 -20 27 0
27 0 27 -25 -10 -29 -42 -32 -44 -32 -19 -1 22 36 62 56 62 9 0 30 20 46 45
25 37 34 44 53 40 14 -3 21 -2 18 4 -3 5 1 12 10 15 8 3 12 2 9 -4 -3 -6 -2
-10 4 -10 18 0 21 18 6 33 -17 18 -20 47 -5 47 5 0 9 6 7 13 -2 14 2 14 65 4
33 -6 45 -12 42 -22 -3 -7 1 -16 8 -21 7 -4 10 -4 6 1 -5 5 3 23 16 40 14 18
24 45 24 61 0 16 7 46 16 68 18 43 21 60 5 34 -15 -27 -42 -23 -34 3 6 19 4
21 -18 17 -18 -4 -24 -1 -20 9 3 8 13 11 24 8 15 -5 19 -1 19 20 0 15 -3 25
-7 23 -51 -24 -63 -34 -68 -49 -4 -11 -32 -39 -64 -63 -31 -24 -63 -51 -70
-60 -7 -9 -19 -16 -27 -16 -7 0 0 14 17 32 23 26 28 39 23 60 -3 18 -1 28 6
28 7 0 10 7 6 15 -4 11 9 25 41 45 26 17 53 30 61 30 7 0 20 7 29 15 8 8 18
13 22 10 5 -2 16 4 26 15 19 21 11 25 -15 10z m-129 -236 c-11 -15 -21 -24
-21 -20 0 12 33 57 37 52 3 -3 -4 -17 -16 -32z m49 -29 c0 -10 -10 -15 -27
-15 l-28 1 25 14 c31 18 30 18 30 0z m-137 -96 c-17 -29 -18 -29 -21 -8 -2 12
2 26 10 30 25 16 29 9 11 -22z m54 -1 c-3 -8 -6 -5 -6 6 -1 11 2 17 5 13 3 -3
4 -12 1 -19z m-207 -28 c-27 -39 -34 -39 -12 0 9 16 21 30 25 30 5 0 -1 -13
-13 -30z m-46 -8 c3 -5 -1 -9 -9 -9 -8 0 -15 4 -15 9 0 4 4 8 9 8 6 0 12 -4
15 -8z m69 -31 c-28 -33 -37 -24 -12 11 13 17 24 27 26 21 3 -7 -4 -21 -14
-32z m-112 -34 c-10 -9 -11 -8 -5 6 3 10 9 15 12 12 3 -3 0 -11 -7 -18z m58 4
c9 -6 10 -11 2 -15 -6 -4 -11 -12 -11 -18 0 -6 12 -3 26 7 31 20 40 15 24 -15
-8 -16 -9 -25 0 -35 13 -16 -3 -55 -23 -56 -20 -1 -87 -89 -87 -115 0 -16 -6
-24 -18 -24 -10 0 -23 -5 -30 -12 -6 -6 -15 -9 -18 -5 -10 9 14 59 25 53 14
-9 44 32 37 50 -5 12 5 28 31 52 21 19 33 31 26 28 -19 -10 -26 13 -8 30 9 10
13 23 9 33 -20 49 -16 61 15 42z m141 0 c0 -5 -7 -14 -15 -21 -12 -10 -15 -10
-15 2 0 8 3 18 7 21 9 10 23 9 23 -2z m-50 -15 c0 -2 -8 -10 -17 -17 -16 -13
-17 -12 -4 4 13 16 21 21 21 13z m-124 -45 c-12 -19 -24 -12 -19 10 4 13 9 17
15 11 6 -6 7 -15 4 -21z m447 -26 c-3 -9 -8 -14 -10 -11 -3 3 -2 9 2 15 9 16
15 13 8 -4z m-48 -34 c-3 -6 -11 -11 -17 -11 -6 0 -6 6 2 15 14 17 26 13 15
-4z m135 0 c0 -13 -29 -35 -37 -27 -3 3 -1 6 5 6 7 0 12 7 12 15 0 8 5 15 10
15 6 0 10 -4 10 -9z m-600 -15 c0 -8 -7 -16 -15 -20 -13 -4 -14 -2 -5 14 13
23 20 26 20 6z m155 -6 c3 -5 1 -10 -4 -10 -6 0 -11 5 -11 10 0 6 2 10 4 10 3
0 8 -4 11 -10z m-211 -32 c-3 -13 -13 -30 -20 -39 -8 -8 -14 -21 -14 -27 0 -7
-4 -12 -10 -12 -14 0 -13 11 10 58 22 44 46 58 34 20z m409 1 c-6 -6 -19 -9
-29 -6 -17 3 -16 5 6 14 28 12 39 8 23 -8z m-216 -15 c-9 -9 -28 6 -21 18 4 6
10 6 17 -1 6 -6 8 -13 4 -17z m478 -94 c3 -5 1 -10 -4 -10 -6 0 -11 5 -11 10
0 6 2 10 4 10 3 0 8 -4 11 -10z m-625 -80 c0 -5 -4 -10 -10 -10 -5 0 -10 -9
-10 -19 0 -18 -17 -38 -24 -30 -6 8 24 69 34 69 6 0 10 -4 10 -10z m496 -25
c-11 -8 -22 -12 -25 -9 -6 6 19 24 34 24 6 -1 1 -7 -9 -15z m-107 -18 c-6 -13
-25 -32 -42 -42 -32 -18 -31 -17 8 24 21 22 40 41 42 41 1 0 -2 -11 -8 -23z
m384 4 c-4 -3 -13 -14 -18 -25 -13 -23 -31 -18 -27 8 1 13 -2 16 -13 12 -9 -3
-14 -2 -11 2 3 5 21 9 41 9 20 0 32 -3 28 -6z m-306 -22 c-11 -7 -23 -7 -28
-2 -5 5 3 9 19 11 24 1 25 0 9 -9z m327 -4 c-4 -9 -15 -20 -26 -26 -19 -10
-19 -10 -3 15 19 28 38 35 29 11z m-384 -6 c0 -5 5 -7 12 -3 6 4 8 3 5 -3 -4
-6 -22 -18 -41 -27 -22 -10 -33 -22 -30 -30 3 -7 -1 -16 -9 -19 -19 -7 -50
-67 -35 -67 6 0 3 -9 -7 -20 -11 -12 -13 -20 -6 -20 7 0 9 -5 6 -10 -5 -8 -11
-7 -21 1 -8 6 -12 14 -10 16 2 3 0 18 -6 34 -9 26 -7 34 13 55 12 13 33 24 46
24 13 0 22 4 21 8 -4 10 44 72 55 72 4 0 7 -5 7 -11z m-450 -3 c0 -3 -4 -8
-10 -11 -5 -3 -10 -1 -10 4 0 6 5 11 10 11 6 0 10 -2 10 -4z m920 -16 c0 -5
-5 -10 -11 -10 -5 0 -7 5 -4 10 3 6 8 10 11 10 2 0 4 -4 4 -10z m-575 -10 c3
-5 -1 -10 -10 -10 -9 0 -13 5 -10 10 3 6 8 10 10 10 2 0 7 -4 10 -10z m-286
-52 c1 -29 2 -66 3 -83 0 -16 -1 -41 -2 -55 -2 -14 0 -35 4 -47 8 -26 -5 -30
-26 -10 -7 8 -19 12 -27 9 -8 -3 -11 0 -7 7 4 6 0 21 -8 33 -9 12 -16 37 -16
55 0 22 -6 36 -20 43 -11 6 -20 8 -20 5 0 -4 -4 -4 -10 0 -12 7 29 55 47 55 7
0 18 9 25 20 7 11 22 20 34 20 19 0 22 -6 23 -52z m241 18 c0 -2 -8 -10 -17
-17 -16 -13 -17 -12 -4 4 13 16 21 21 21 13z m500 -36 c0 -5 7 -10 15 -10 13
0 14 -2 3 -14 -7 -8 -15 -10 -16 -5 -2 5 -8 7 -13 4 -5 -4 -6 2 -2 11 5 13 3
16 -10 11 -9 -3 -17 -2 -17 3 0 6 9 10 20 10 11 0 20 -4 20 -10z m-65 -20 c-3
-5 1 -10 10 -10 9 0 14 -4 10 -9 -3 -6 2 -14 11 -19 12 -7 15 -15 9 -28 -5
-13 -9 -15 -12 -6 -3 6 -9 10 -14 6 -5 -3 -9 0 -9 6 0 8 -6 8 -21 0 -11 -7
-23 -10 -25 -7 -8 7 8 37 20 37 6 0 5 4 -3 9 -16 10 -6 31 15 31 8 0 12 -4 9
-10z m133 -31 c-14 -29 -23 -38 -30 -31 -7 7 -4 20 11 41 32 44 43 38 19 -10z
m-588 10 c0 -6 -10 -13 -22 -18 -15 -5 -18 -10 -9 -15 7 -5 18 -3 24 3 21 21
25 10 23 -70 -1 -44 1 -82 5 -85 7 -4 5 -25 -7 -78 -5 -21 -4 -27 5 -22 6 4
11 1 11 -7 0 -18 -29 -31 -32 -14 0 7 -2 17 -3 22 -2 6 -3 16 -4 23 -1 17 -21
15 -21 -3 0 -30 -44 -7 -47 25 -6 45 -9 56 -21 78 -7 12 -10 27 -7 32 4 6 -3
7 -18 1 -26 -10 -47 2 -47 26 0 9 6 10 26 3 33 -13 34 -13 34 8 0 12 5 10 19
-11 15 -24 20 -26 30 -13 10 12 9 16 -6 25 -10 6 -13 11 -6 11 6 0 14 18 18
40 4 25 11 38 18 33 6 -4 8 0 4 9 -4 12 -1 14 14 11 10 -3 19 -9 19 -14z m-95
-49 c-3 -5 -10 -10 -16 -10 -5 0 -9 5 -9 10 0 6 7 10 16 10 8 0 12 -4 9 -10z
m632 4 c-3 -3 -12 -4 -19 -1 -8 3 -5 6 6 6 11 1 17 -2 13 -5z m-93 -16 c-4 -7
-14 -21 -23 -31 -14 -17 -13 -17 12 -8 25 10 26 9 15 -9 -14 -22 -24 -25 -33
-10 -4 6 -10 8 -14 6 -4 -3 -7 7 -6 22 0 19 7 28 25 33 14 4 26 7 28 8 2 1 0
-5 -4 -11z m-404 -19 c0 -6 -4 -7 -10 -4 -5 3 -10 11 -10 16 0 6 5 7 10 4 6
-3 10 -11 10 -16z m-226 -45 c3 -8 2 -12 -4 -9 -6 3 -10 10 -10 16 0 14 7 11
14 -7z m276 -14 c0 -13 -5 -18 -14 -14 -8 3 -12 12 -9 20 8 21 23 17 23 -6z
m270 10 c0 -5 -10 -15 -22 -21 -23 -12 -23 -12 -4 10 21 23 26 26 26 11z
m-483 -32 c-3 -8 -6 -5 -6 6 -1 11 2 17 5 13 3 -3 4 -12 1 -19z m-34 -8 c-3
-11 -9 -20 -14 -20 -5 0 -9 9 -9 20 0 11 6 20 14 20 9 0 12 -7 9 -20z m204 -2
c-3 -8 -6 -5 -6 6 -1 11 2 17 5 13 3 -3 4 -12 1 -19z m-377 -73 c13 -8 13 -35
0 -35 -5 0 -10 7 -10 15 0 8 -4 15 -10 15 -5 0 -10 -17 -10 -37 0 -24 -3 -33
-9 -25 -4 7 -6 24 -3 38 2 13 -1 30 -7 37 -8 10 -6 20 6 37 l17 24 8 -31 c5
-18 13 -35 18 -38z m434 38 c4 -9 3 -19 0 -22 -4 -3 -9 -1 -11 6 -2 7 -11 9
-19 6 -14 -5 -20 17 -8 30 9 9 32 -3 38 -20z m-204 -8 c0 -13 -28 -41 -34 -34
-2 2 -6 14 -10 25 -5 18 -2 22 19 22 14 0 25 -6 25 -13z m451 -42 c-12 -20
-14 -14 -5 12 4 9 9 14 11 11 3 -2 0 -13 -6 -23z m-288 -1 c10 -10 15 -21 12
-24 -10 -10 -53 16 -48 29 7 18 17 16 36 -5z m257 -17 c8 -11 10 -17 6 -13 -5
4 -16 2 -24 -4 -11 -10 -17 -8 -29 7 -13 18 -12 21 9 26 13 3 23 5 23 5 1 -1
7 -10 15 -21z m103 -25 c-3 -11 -9 -20 -15 -20 -5 0 -4 9 2 20 6 11 12 20 14
20 2 0 2 -9 -1 -20z m-447 -57 c-1 -1 -8 2 -15 6 -10 6 -11 17 -6 37 l8 29 8
-35 c4 -19 7 -36 5 -37z m152 42 c0 -28 -13 -25 -21 5 -3 12 0 20 8 20 7 0 13
-11 13 -25z m182 -35 c0 -5 7 -7 16 -3 12 4 15 1 12 -13 -2 -10 -9 -18 -16
-17 -6 2 -9 -3 -6 -11 3 -8 0 -17 -5 -21 -6 -3 -9 -11 -6 -16 4 -5 -3 -9 -14
-9 -12 0 -21 5 -21 11 0 7 -9 9 -21 6 -15 -4 -19 -2 -15 9 6 17 -5 19 -21 3
-7 -7 -12 -6 -16 4 -6 16 36 33 54 22 5 -4 12 2 16 12 10 27 43 45 43 23z
m-173 -38 c-10 -2 -15 -8 -12 -13 4 -5 2 -9 -2 -9 -11 0 -33 36 -26 43 3 3 17
0 31 -6 20 -9 22 -13 9 -15z m37 -28 c9 -3 14 -10 11 -15 -8 -12 17 -48 30
-43 6 3 20 -4 32 -15 11 -11 24 -17 28 -13 3 4 11 -1 16 -10 5 -10 17 -14 29
-11 17 4 20 0 20 -25 0 -17 5 -34 10 -37 12 -7 13 -25 3 -25 -5 1 -21 12 -38
26 -16 15 -25 23 -18 20 7 -4 9 1 6 13 -6 23 -24 32 -51 24 -14 -3 -19 -11
-15 -21 3 -10 -2 -8 -11 6 -10 12 -24 22 -32 22 -9 0 -14 7 -12 19 2 11 -7 27
-21 38 -16 13 -22 26 -18 36 7 19 9 20 31 11z m-44 -39 c0 -8 -4 -15 -10 -15
-5 0 -10 7 -10 15 0 8 5 15 10 15 6 0 10 -7 10 -15z m-40 -45 c0 -5 15 -8 34
-7 19 1 32 5 29 10 -2 4 0 7 5 7 6 0 13 -11 16 -25 9 -35 42 -62 78 -63 36 -1
72 -34 43 -40 -8 -2 -24 7 -35 20 -11 13 -19 17 -20 11 0 -7 -6 -13 -14 -13
-8 0 -16 -5 -18 -10 -2 -7 -11 -4 -23 5 -20 16 -20 16 3 10 16 -5 22 -2 22 9
0 9 -6 16 -13 16 -7 0 -18 5 -25 12 -6 6 -26 13 -43 15 -18 2 -39 9 -47 16 -8
6 -23 11 -34 9 -16 -3 -25 8 -14 19 8 8 56 7 56 -1z m180 -50 c0 -5 -4 -10
-10 -10 -5 0 -10 5 -10 10 0 6 5 10 10 10 6 0 10 -4 10 -10z m174 -24 c-6 -15
-7 -15 -19 1 -10 13 -10 20 -2 25 16 10 29 -5 21 -26z m-360 10 c-6 -16 12
-56 25 -56 5 0 6 12 3 28 -5 24 -4 26 11 13 19 -15 23 -51 7 -51 -7 0 -7 -6 0
-19 13 -25 13 -31 0 -31 -6 0 -14 8 -17 18 -4 9 -20 36 -35 58 -33 50 -34 54
-8 54 13 0 17 -5 14 -14z m856 -5 c0 -6 -4 -13 -10 -16 -5 -3 -10 1 -10 9 0 9
5 16 10 16 6 0 10 -4 10 -9z m-536 -44 c4 4 6 3 4 -3 -2 -7 0 -12 5 -13 25 -3
36 1 31 12 -3 8 2 20 11 27 9 7 15 9 14 4 -6 -32 2 -39 43 -37 24 0 46 -4 50
-10 5 -7 8 -3 8 10 0 27 18 40 26 19 3 -9 13 -16 20 -16 11 0 14 -11 13 -38
-3 -46 6 -63 29 -55 13 4 14 3 6 -6 -7 -8 -8 -27 -4 -52 8 -41 3 -47 -19 -26
-11 10 -11 8 0 -13 17 -33 20 -50 7 -50 -7 0 -7 -4 0 -13 8 -9 1 -12 -31 -12
-36 0 -45 5 -62 30 -11 16 -26 35 -34 41 -8 6 -11 16 -6 24 4 7 4 15 -1 19 -5
3 -17 18 -27 34 -21 33 -37 35 -37 5 -1 -21 -2 -22 -14 -6 -7 10 -16 15 -20
11 -4 -4 -4 0 0 10 3 10 11 17 18 16 22 -3 36 1 36 10 0 5 -14 9 -31 8 -24 -2
-34 4 -47 28 -9 17 -20 31 -23 33 -4 2 -4 12 -1 24 l5 20 12 -21 c6 -12 15
-18 19 -14z m320 24 c3 -5 -6 -8 -20 -8 -19 0 -22 2 -13 8 18 11 26 11 33 0z
m-379 -41 c3 -5 1 -10 -4 -10 -6 0 -11 5 -11 10 0 6 2 10 4 10 3 0 8 -4 11
-10z m-138 -36 c-12 -13 22 -34 55 -34 35 0 78 -34 55 -44 -9 -3 -8 -8 3 -15
10 -7 11 -11 3 -11 -7 0 -10 -7 -7 -15 4 -8 1 -15 -4 -15 -6 0 -12 10 -14 22
-2 12 -8 23 -15 25 -12 4 -12 -14 0 -34 14 -22 -37 -19 -59 4 -12 12 -25 19
-30 15 -4 -4 -4 -1 1 7 5 9 2 19 -10 28 -11 7 -14 13 -9 13 6 0 15 -5 21 -11
8 -8 11 -4 10 15 -1 14 -9 28 -17 31 -13 5 -13 7 0 15 17 11 26 13 17 4z m173
-4 c0 -5 -4 -10 -10 -10 -5 0 -10 5 -10 10 0 6 5 10 10 10 6 0 10 -4 10 -10z
m-303 -42 c-3 -8 -6 -5 -6 6 -1 11 2 17 5 13 3 -3 4 -12 1 -19z m313 -2 c11
-21 10 -27 -9 -47 -11 -12 -24 -19 -28 -16 -3 4 -2 7 4 7 17 0 23 40 8 46 -8
3 -11 12 -8 20 8 20 18 17 33 -10z m367 2 c-3 -8 -6 -5 -6 6 -1 11 2 17 5 13
3 -3 4 -12 1 -19z m-37 -28 c0 -5 -5 -10 -11 -10 -5 0 -7 5 -4 10 3 6 8 10 11
10 2 0 4 -4 4 -10z m-30 -66 c0 -13 -4 -24 -9 -24 -4 0 -8 13 -7 29 1 35 16
30 16 -5z m48 -93 c19 -17 30 -41 17 -41 -19 0 -55 27 -55 42 0 23 9 22 38 -1z
m132 -20 c0 -5 -9 -7 -20 -4 -11 3 -20 7 -20 9 0 2 9 4 20 4 11 0 20 -4 20 -9z
m600 -61 c0 -5 -5 -10 -11 -10 -5 0 -7 5 -4 10 3 6 8 10 11 10 2 0 4 -4 4 -10z
m290 -70 c0 -5 -2 -10 -4 -10 -3 0 -8 5 -11 10 -3 6 -1 10 4 10 6 0 11 -4 11
-10z m-565 -9 c3 -5 1 -12 -4 -15 -5 -3 -11 1 -15 9 -6 16 9 21 19 6z m65 -62
c0 -9 -7 -19 -14 -22 -17 -7 -76 20 -76 34 0 5 14 2 31 -6 32 -17 57 -11 26 6
-9 6 -15 14 -12 19 9 14 45 -12 45 -31z m230 24 c0 -9 -3 -13 -7 -10 -3 4 -12
2 -20 -4 -10 -9 -13 -8 -13 5 0 10 4 15 9 11 5 -3 12 -1 16 5 9 15 15 12 15
-7z m227 -38 c0 -19 -8 -19 -33 1 -10 8 -13 13 -6 9 6 -3 12 -2 12 4 0 6 6 8
13 5 8 -3 14 -11 14 -19z m-62 -5 c3 -5 2 -10 -4 -10 -5 0 -13 5 -16 10 -3 6
-2 10 4 10 5 0 13 -4 16 -10z m-241 -15 c3 -9 0 -15 -9 -15 -8 0 -15 7 -15 15
0 8 4 15 9 15 5 0 11 -7 15 -15z m38 -7 c-7 -7 -12 -8 -12 -2 0 14 12 26 19
19 2 -3 -1 -11 -7 -17z m-237 -6 c-3 -3 -11 0 -18 7 -9 10 -8 11 6 5 10 -3 15
-9 12 -12z m270 -5 c-10 -8 -15 -19 -11 -25 4 -7 2 -12 -3 -12 -15 0 -14 37 2
43 24 10 31 7 12 -6z m170 2 c11 -16 1 -19 -13 -3 -7 8 -8 14 -3 14 5 0 13 -5
16 -11z m51 -59 c-1 -29 -6 -36 -19 -24 -5 5 12 54 18 54 1 0 2 -13 1 -30z
m-205 -11 c-12 -13 -21 -19 -21 -14 0 11 32 46 38 41 2 -3 -5 -15 -17 -27z
m-561 -25 c0 -23 -22 -27 -42 -7 -19 20 -19 20 11 20 19 0 31 -6 31 -13z m84
0 c3 -8 2 -12 -4 -9 -6 3 -10 10 -10 16 0 14 7 11 14 -7z m601 -4 c-3 -5 -12
-10 -18 -10 -7 0 -6 4 3 10 19 12 23 12 15 0z m-1635 -38 c0 -15 -2 -15 -10
-2 -13 20 -13 33 0 25 6 -3 10 -14 10 -23z m1051 -23 c-9 -23 -9 -22 -8 8 1
18 6 28 10 24 4 -4 3 -18 -2 -32z m219 -24 c0 -2 -10 -10 -22 -16 -21 -11 -22
-11 -9 4 13 16 31 23 31 12z m10 -44 c-7 -14 -7 -21 0 -21 5 0 10 -13 10 -29
0 -16 6 -31 15 -35 21 -8 19 -43 -4 -49 -31 -8 -39 5 -44 75 -5 57 -3 69 11
77 22 13 26 7 12 -18z m422 -43 c-7 -7 -12 -8 -12 -2 0 14 12 26 19 19 2 -3
-1 -11 -7 -17z m-1362 -153 c0 -8 -2 -15 -4 -15 -2 0 -6 7 -10 15 -3 8 -1 15
4 15 6 0 10 -7 10 -15z m818 -94 c-12 -4 -29 20 -21 32 3 4 11 0 18 -10 9 -12
10 -19 3 -22z m-722 -18 c20 -27 16 -38 -6 -18 -20 18 -26 35 -14 35 4 0 13
-8 20 -17z m684 -19 c0 -16 -16 -19 -25 -4 -8 13 4 32 16 25 5 -4 9 -13 9 -21z
m76 -10 c12 -10 12 -16 -1 -40 -17 -33 -20 -70 -5 -79 16 -10 11 -25 -8 -25
-32 0 -72 24 -72 44 0 11 3 17 6 13 8 -8 35 19 51 50 11 21 10 27 -3 40 -13
13 -13 17 -2 24 8 5 14 4 17 -4 2 -7 10 -17 17 -23z m59 16 c-10 -11 -20 -18
-23 -16 -5 6 21 35 32 36 5 0 1 -9 -9 -20z m72 -5 c17 -17 17 -18 -12 -33 -18
-9 -20 -7 -20 19 0 33 9 36 32 14z m-277 -21 c13 -5 13 -6 0 -14 -22 -14 -50
-12 -50 3 0 14 24 19 50 11z m54 -39 c-4 -8 -11 -12 -16 -9 -6 4 -5 10 3 15
19 12 19 11 13 -6z m196 -40 c14 -19 14 -19 -2 -6 -10 7 -18 18 -18 24 0 6 1
8 3 6 1 -2 9 -13 17 -24z m-215 -46 c0 -35 -1 -38 -12 -22 -8 9 -11 23 -9 30
3 7 1 15 -4 18 -17 10 -11 23 8 18 13 -3 17 -14 17 -44z m-62 16 c17 -7 17 -8
0 -20 -15 -11 -21 -11 -35 2 -30 27 -9 37 35 18z m-83 -4 c0 -17 -19 -23 -50
-16 -43 9 -37 25 10 25 22 0 40 -4 40 -9z m900 5 c0 -2 -7 -7 -16 -10 -8 -3
-12 -2 -9 4 6 10 25 14 25 6z m-790 -36 c0 -5 -2 -10 -4 -10 -3 0 -8 5 -11 10
-3 6 -1 10 4 10 6 0 11 -4 11 -10z m250 -31 c0 -5 -9 -9 -20 -9 -19 0 -27 20
-13 33 7 8 33 -11 33 -24z"/>
<path d="M220 2035 c0 -14 5 -25 10 -25 6 0 10 4 10 9 0 5 3 16 6 25 4 11 1
16 -10 16 -10 0 -16 -9 -16 -25z"/>
<path d="M1107 1183 c-4 -3 -7 -11 -7 -17 0 -6 5 -5 12 2 6 6 9 14 7 17 -3 3
-9 2 -12 -2z"/>
<path d="M745 1302 c-15 -11 -14 -39 1 -39 8 0 14 11 14 24 0 25 -1 26 -15 15z"/>
<path d="M1650 189 c0 -5 5 -7 10 -4 6 3 10 8 10 11 0 2 -4 4 -10 4 -5 0 -10
-5 -10 -11z"/>
<path d="M1954 3035 c8 -8 17 -15 20 -15 3 0 6 7 6 15 0 9 -9 15 -21 15 -18 0
-19 -2 -5 -15z"/>
<path d="M850 3020 c-8 -5 -11 -12 -7 -16 4 -4 13 -2 19 4 15 15 7 24 -12 12z"/>
<path d="M1834 3005 c-3 -14 -12 -25 -19 -25 -30 0 -27 -25 6 -52 18 -16 35
-24 37 -19 7 22 70 81 85 81 20 0 23 -16 5 -23 -7 -2 -10 -8 -6 -12 5 -5 20
-3 34 4 26 11 26 12 9 31 -10 11 -26 20 -36 20 -10 0 -21 5 -24 11 -5 7 -15 5
-30 -5 -20 -13 -24 -13 -29 -1 -8 23 -25 18 -32 -10z m46 -39 c0 -3 -4 -8 -10
-11 -5 -3 -10 -1 -10 4 0 6 5 11 10 11 6 0 10 -2 10 -4z"/>
<path d="M842 2969 c2 -6 8 -10 13 -10 5 0 11 4 13 10 2 6 -4 11 -13 11 -9 0
-15 -5 -13 -11z"/>
<path d="M2392 2959 c2 -7 10 -15 17 -17 8 -3 12 1 9 9 -2 7 -10 15 -17 17 -8
3 -12 -1 -9 -9z"/>
<path d="M2375 2930 c-3 -5 1 -10 9 -10 9 0 16 5 16 10 0 6 -4 10 -9 10 -6 0
-13 -4 -16 -10z"/>
<path d="M1941 2924 c-1 -18 26 -37 34 -24 3 5 0 10 -9 10 -8 0 -17 6 -19 13
-4 7 -6 8 -6 1z"/>
<path d="M1950 2863 c0 -7 -11 -18 -24 -23 -13 -5 -27 -14 -31 -19 -3 -6 -13
-11 -21 -11 -8 0 -12 5 -9 10 6 10 -6 14 -37 11 -9 -1 -19 7 -23 19 -3 11 -10
20 -15 20 -11 0 8 -48 29 -74 15 -18 15 -18 -6 -7 -13 6 -23 16 -23 21 0 6 -4
10 -10 10 -5 0 -10 -9 -10 -21 0 -11 -4 -17 -10 -14 -5 3 -7 0 -4 -8 3 -8 13
-14 22 -12 9 1 22 -2 28 -7 16 -12 35 -7 54 15 8 10 31 20 50 23 34 5 35 5 13
-11 -13 -9 -23 -24 -23 -33 0 -14 2 -14 9 -3 5 7 19 14 32 15 18 1 24 7 23 23
0 12 5 24 13 27 7 3 13 2 13 -3 0 -4 22 -13 49 -21 33 -9 48 -18 47 -29 -2
-27 36 -19 41 8 2 14 8 30 14 38 9 10 5 16 -18 25 -16 8 -27 19 -26 28 3 12
-10 15 -72 16 -57 0 -75 -3 -75 -13z m65 -21 c-3 -3 -11 0 -18 7 -9 10 -8 11
6 5 10 -3 15 -9 12 -12z m75 -20 c-8 -3 -8 -8 0 -17 9 -10 7 -13 -7 -11 -13 2
-18 12 -20 35 -1 32 -1 32 19 15 11 -11 15 -20 8 -22z"/>
<path d="M2120 2854 c0 -8 5 -12 10 -9 6 3 10 10 10 16 0 5 -4 9 -10 9 -5 0
-10 -7 -10 -16z"/>
<path d="M2333 2820 c14 -12 32 -17 42 -14 27 11 10 29 -29 31 l-38 2 25 -19z"/>
<path d="M1525 2807 c-20 -15 -13 -39 9 -31 8 3 21 -5 30 -18 9 -12 16 -18 16
-12 0 6 -9 19 -20 29 -12 10 -18 25 -16 32 7 16 4 16 -19 0z"/>
<path d="M2315 2790 c3 -5 8 -10 11 -10 2 0 4 5 4 10 0 6 -5 10 -11 10 -5 0
-7 -4 -4 -10z"/>
<path d="M2385 2790 c3 -5 8 -10 11 -10 2 0 4 5 4 10 0 6 -5 10 -11 10 -5 0
-7 -4 -4 -10z"/>
<path d="M1977 2774 c-12 -12 14 -34 40 -34 20 0 22 2 11 14 -7 8 -17 12 -22
9 -4 -3 -11 0 -15 6 -4 6 -10 8 -14 5z"/>
<path d="M2154 2769 c-5 -9 -2 -10 9 -6 20 8 20 7 6 -30 -7 -19 -7 -25 0 -18
15 15 18 57 4 62 -6 2 -15 -1 -19 -8z"/>
<path d="M1447 2753 c4 -10 2 -14 -4 -10 -13 8 -46 -21 -38 -33 3 -5 -1 -11
-7 -13 -8 -4 -7 -6 3 -6 9 -1 19 6 23 14 3 8 15 15 26 15 24 0 28 35 6 43 -11
4 -13 1 -9 -10z"/>
<path d="M1489 2759 c-10 -6 -4 -9 19 -9 17 0 32 2 32 4 0 9 -39 13 -51 5z"/>
<path d="M852 2744 c-17 -8 -20 -13 -10 -17 10 -4 10 -8 -2 -16 -10 -7 -11
-11 -3 -11 12 0 49 48 42 54 -2 1 -15 -3 -27 -10z"/>
<path d="M1770 2735 c-7 -8 -18 -15 -26 -15 -7 0 -16 -10 -20 -22 -4 -13 -12
-27 -18 -31 -7 -6 -6 -7 4 -4 8 2 20 13 25 24 6 11 16 18 23 15 9 -3 6 -12 -9
-34 -17 -23 -19 -32 -9 -38 7 -4 9 -13 5 -20 -5 -9 -4 -11 4 -6 6 4 24 0 39
-10 20 -13 24 -14 15 -2 -7 8 -10 18 -6 22 4 4 0 4 -8 1 -18 -7 -44 19 -34 35
3 5 16 10 28 10 16 0 18 3 9 9 -11 6 -10 10 3 15 9 3 15 12 12 20 -3 8 2 16
13 19 14 3 17 1 13 -11 -4 -10 -2 -13 5 -8 7 4 12 2 12 -3 0 -6 -9 -11 -19
-11 -11 0 -23 -4 -26 -10 -3 -5 -1 -10 6 -10 9 0 9 -3 0 -14 -8 -10 -9 -16 -1
-21 5 -3 10 0 10 7 1 8 6 6 15 -6 20 -26 19 -39 -2 -32 -15 5 -15 4 1 -9 16
-12 22 -12 34 -2 12 9 16 9 19 0 3 -7 12 -13 20 -13 10 0 13 6 8 18 -5 14 -4
15 6 5 21 -20 0 -30 -85 -41 -58 -8 -84 -16 -102 -33 -13 -12 -24 -17 -24 -11
0 6 8 16 19 21 10 6 22 18 25 28 6 14 4 15 -5 6 -6 -6 -18 -9 -26 -6 -7 3 -13
2 -11 -3 2 -5 -1 -10 -6 -11 -5 -1 -13 -7 -18 -15 -7 -10 -9 -10 -7 2 1 8 1
28 0 43 -1 24 -4 26 -20 17 -16 -8 -19 -7 -16 8 2 9 4 19 5 22 1 3 2 8 1 13 0
4 4 7 10 7 8 0 8 4 -1 14 -12 15 -44 11 -35 -4 3 -5 0 -12 -6 -16 -8 -4 -9 -3
-5 4 11 17 -9 15 -24 -3 -7 -8 -23 -15 -37 -15 -16 0 -22 -4 -17 -11 5 -8 -1
-10 -18 -6 -17 5 -30 2 -38 -8 -7 -8 -22 -15 -34 -15 -17 0 -18 2 -6 10 13 9
13 11 0 20 -13 8 -13 10 1 10 9 0 23 10 32 23 12 18 18 20 28 10 19 -19 53
-17 45 2 -3 8 -1 15 4 15 6 0 10 -4 10 -10 0 -5 7 -10 15 -10 8 0 15 7 15 16
0 8 4 13 9 10 13 -9 7 22 -7 36 -9 9 -12 8 -12 -7 0 -26 -50 -32 -51 -6 0 10
-2 11 -6 4 -2 -7 -14 -13 -26 -14 -21 0 -21 -1 -2 -8 17 -7 17 -8 -8 -15 -15
-3 -27 -11 -27 -17 0 -6 -4 -8 -9 -4 -5 3 -19 -8 -31 -25 -12 -16 -30 -30 -41
-30 -18 0 -21 -4 -23 -31 -1 -7 -14 -27 -31 -44 -16 -18 -34 -39 -40 -46 -5
-8 -17 -23 -25 -34 -14 -19 -14 -19 3 -5 28 21 51 21 65 0 10 -16 9 -18 -3
-14 -9 4 -15 0 -15 -10 0 -9 -5 -16 -11 -16 -5 0 -7 -5 -4 -10 4 -6 11 -7 17
-4 7 4 7 0 0 -13 -17 -31 -4 -61 29 -68 22 -5 29 -12 29 -29 0 -22 17 -35 64
-50 15 -5 16 -4 8 7 -14 17 1 42 21 34 9 -3 21 2 29 11 8 10 8 13 1 9 -6 -4
-15 -2 -19 4 -5 8 1 10 20 7 18 -4 29 -1 33 8 5 12 33 9 31 -4 -4 -31 4 -41
32 -40 27 1 45 18 19 18 -19 0 -66 45 -61 58 3 10 7 10 18 1 11 -9 15 -8 19 3
4 9 16 14 28 14 12 -1 28 2 35 7 8 6 12 6 12 -2 0 -6 -11 -13 -25 -17 -14 -3
-25 -10 -25 -15 0 -11 54 1 58 13 6 14 28 9 47 -12 10 -11 13 -20 7 -20 -7 0
-12 -8 -12 -17 0 -12 3 -14 8 -6 4 6 24 11 45 11 34 0 37 -2 37 -28 0 -16 5
-32 10 -35 7 -4 8 3 4 20 -4 18 -2 30 7 36 10 6 11 9 2 9 -7 0 -13 4 -13 9 0
4 11 7 25 6 19 -3 25 1 25 16 0 11 -7 19 -16 19 -11 0 -15 6 -11 20 6 23 -14
43 -36 34 -12 -4 -14 -1 -10 15 6 25 23 38 23 18 0 -8 20 -25 45 -38 25 -13
45 -28 45 -32 0 -5 4 -5 10 -2 15 9 50 -14 50 -33 0 -11 -14 -25 -35 -35 -19
-9 -35 -12 -35 -7 0 6 -4 10 -10 10 -21 0 -9 -26 20 -42 29 -16 30 -16 30 2 0
29 22 36 38 12 19 -28 31 -27 61 3 24 26 61 34 61 13 0 -6 3 -8 7 -5 3 4 12
-1 19 -11 11 -13 15 -14 22 -4 7 10 13 8 27 -8 10 -11 29 -20 42 -20 12 0 23
-4 23 -10 0 -5 -14 -10 -31 -10 -20 0 -28 4 -23 12 5 8 2 9 -10 5 -10 -4 -24
-7 -32 -7 -20 0 -17 -18 4 -24 9 -3 20 -5 23 -3 4 1 16 -7 28 -17 22 -20 30
-9 9 12 -9 9 -8 12 4 12 9 0 19 -7 22 -16 3 -8 10 -12 16 -9 5 3 10 -1 10 -9
0 -9 8 -16 19 -16 10 0 33 -3 51 -7 28 -5 32 -4 27 10 -5 14 -1 16 26 13 18
-3 38 -5 45 -5 7 -1 10 -6 6 -12 -3 -6 -14 -9 -24 -6 -12 3 -17 0 -14 -8 6
-15 38 -25 52 -16 5 3 11 17 12 31 3 38 1 46 -10 30 -8 -13 -10 -12 -10 3 0 9
3 17 8 17 4 0 8 25 10 55 2 57 -9 71 -28 35 -14 -25 -24 -25 -59 1 -28 20 -51
19 -51 -2 0 -6 5 -7 10 -4 6 3 10 -1 10 -10 0 -10 5 -13 12 -9 7 4 8 3 4 -4
-10 -16 -58 7 -52 25 3 8 -1 16 -9 19 -19 8 -19 19 1 38 8 9 11 16 5 16 -6 0
-11 12 -11 27 0 14 3 23 7 20 4 -4 20 5 36 20 21 19 28 23 24 11 -8 -22 0 -23
19 -3 12 12 12 15 2 15 -7 1 -3 6 9 13 17 10 20 16 11 31 -8 14 -7 21 3 27 11
7 10 9 -3 9 -10 0 -18 5 -18 10 0 15 -26 12 -40 -5 -11 -13 -15 -13 -21 -3 -6
9 -11 10 -19 2 -15 -15 -50 -6 -50 12 0 19 -20 28 -33 15 -9 -9 -7 -11 8 -6
15 5 17 4 6 -3 -18 -13 -38 -5 -45 16 -2 10 -4 4 -3 -13 2 -23 6 -29 21 -27
11 2 15 -1 11 -7 -3 -6 0 -11 7 -11 7 0 19 -9 25 -19 15 -24 -2 -34 -31 -19
-14 8 -16 12 -6 18 9 6 8 9 -6 14 -11 3 -28 21 -38 38 l-19 33 -7 -25 c-4 -14
-3 -30 2 -37 7 -8 3 -10 -12 -6 -24 6 -34 19 -21 28 12 7 3 35 -11 35 -5 0 -6
-4 -3 -10 3 -5 1 -10 -4 -10 -6 0 -11 6 -11 14 0 7 -10 21 -22 29 l-23 16 23
-6 c12 -3 25 -9 28 -14 3 -5 16 -9 30 -9 21 0 23 2 12 14 -7 8 -17 13 -23 13
-5 -1 -9 4 -7 12 3 12 0 12 -12 2 -12 -10 -16 -8 -21 8 -5 18 -10 19 -27 10
-11 -6 -22 -8 -26 -5 -3 3 1 6 9 6 11 0 11 2 -1 10 -8 5 -27 10 -42 10 -21 0
-26 4 -21 17 4 11 3 14 -5 9 -8 -5 -12 0 -12 13 0 23 -19 28 -38 9 -9 -9 -12
-8 -12 6 0 16 -6 18 -39 13 -22 -2 -43 -1 -48 4 -6 6 -15 4 -23 -6z m166 -97
c4 -7 4 -10 -1 -6 -4 4 -14 3 -21 -3 -8 -6 -23 -7 -36 -3 l-23 8 25 7 c38 11
48 10 56 -3z m57 -45 c-3 -7 -16 -13 -29 -13 -17 0 -22 4 -18 15 3 8 16 14 29
13 14 -1 21 -7 18 -15z m-472 -22 c19 -16 22 -22 12 -32 -7 -7 -13 -21 -13
-31 0 -24 -20 -31 -51 -19 -18 7 -20 10 -6 10 14 1 17 6 12 22 -8 24 1 69 14
69 5 0 19 -9 32 -19z m106 2 c2 -5 -4 -16 -14 -24 -11 -9 -14 -10 -9 -1 4 6 3
12 -2 12 -5 0 -12 -9 -15 -20 -3 -13 -10 -18 -21 -14 -9 3 -13 11 -10 16 4 6
10 5 15 -3 8 -13 13 0 12 37 0 13 40 11 44 -3z m-67 -3 c0 -5 -2 -10 -4 -10
-3 0 -8 5 -11 10 -3 6 -1 10 4 10 6 0 11 -4 11 -10z m499 -29 c2 -1 -2 -8 -9
-16 -15 -18 -5 -31 25 -37 12 -2 21 -13 23 -26 5 -30 -4 -28 -46 14 -52 52
-49 77 7 65z m-191 -31 c11 -18 10 -20 -8 -20 -13 0 -20 7 -20 20 0 11 3 20 8
20 4 0 13 -9 20 -20z m90 -8 c6 -19 -23 -14 -42 7 -18 19 -17 20 10 12 15 -4
29 -12 32 -19z m-268 -31 c8 -16 7 -20 -7 -19 -10 0 -26 -3 -37 -7 -14 -6 -18
-5 -14 6 2 8 14 15 26 17 12 2 20 8 17 13 -4 5 -4 9 -1 9 3 0 10 -9 16 -19z
m86 10 c-3 -5 8 -8 25 -7 23 1 32 -4 34 -16 2 -10 -1 -18 -5 -18 -5 0 -14 8
-19 18 -7 11 -10 12 -11 3 0 -9 -9 -12 -30 -9 -17 3 -30 0 -30 -6 0 -6 -5 -4
-10 4 -12 18 -13 33 -2 26 4 -2 14 -1 22 5 19 11 33 12 26 0z m255 -22 l24
-20 -30 17 c-39 24 -40 24 -28 24 6 0 21 -9 34 -21z m-151 -7 c0 -4 -9 -13
-19 -19 -17 -11 -20 -10 -18 7 1 19 37 30 37 12z m335 -2 c7 -11 0 -12 -57
-14 -40 -1 -39 9 2 17 43 8 49 7 55 -3z m65 -10 c13 -9 13 -10 0 -10 -8 0 -22
5 -30 10 -13 9 -13 10 0 10 8 0 22 -5 30 -10z m-568 -25 c4 -17 1 -25 -8 -25
-8 0 -13 6 -11 13 1 6 -6 11 -15 11 -25 -2 -22 5 5 16 12 5 23 9 23 9 1 1 4
-10 6 -24z m282 6 c9 -8 16 -10 16 -6 0 4 6 2 13 -4 8 -6 14 -27 15 -46 1 -31
-1 -35 -24 -35 -14 0 -23 -4 -19 -10 3 -6 3 -20 0 -31 -6 -16 -10 -18 -18 -9
-9 10 -9 14 1 17 6 3 9 9 6 14 -3 6 1 21 10 34 15 23 14 24 -16 39 -17 9 -39
14 -47 11 -10 -3 -20 4 -27 20 -11 23 -11 24 31 21 24 -1 51 -8 59 -15z m-385
5 c-2 -2 -14 -9 -26 -15 -19 -10 -23 -9 -23 4 0 10 9 15 27 15 14 0 24 -2 22
-4z m-169 -26 c-6 -11 -16 -20 -22 -20 -6 0 -3 9 7 20 10 11 20 20 22 20 2 0
-1 -9 -7 -20z m197 2 c-10 -10 -15 -21 -12 -23 2 -3 -4 -5 -13 -6 -9 -1 -28
-4 -41 -9 -43 -13 -18 17 29 37 57 23 56 23 37 1z m623 9 c0 -5 -10 -11 -22
-15 -34 -9 -38 -7 -32 9 6 16 54 21 54 6z m-877 -16 c-3 -9 -8 -14 -10 -11 -3
3 -2 9 2 15 9 16 15 13 8 -4z m162 6 c3 -5 1 -12 -5 -16 -5 -3 -10 1 -10 9 0
18 6 21 15 7z m535 -31 c0 -13 -1 -13 -10 0 -5 8 -10 22 -10 30 0 13 1 13 10
0 5 -8 10 -22 10 -30z m195 3 c3 -10 -1 -13 -12 -11 -9 2 -18 8 -20 14 -5 16
25 13 32 -3z m-528 -14 c-1 -14 -6 -15 -32 -6 -47 15 -49 23 -6 23 30 -1 39
-5 38 -17z m43 7 c0 -8 -4 -18 -10 -21 -5 -3 -10 3 -10 14 0 12 5 21 10 21 6
0 10 -6 10 -14z m-254 -8 c9 -14 -23 -38 -50 -38 -11 0 -30 -9 -42 -21 -22
-20 -28 -9 -11 19 10 15 6 15 -27 2 -21 -7 -26 -6 -26 5 0 8 -7 15 -15 15 -8
0 -15 -4 -15 -10 0 -5 -4 -10 -9 -10 -5 0 -7 8 -5 18 4 12 16 17 42 18 20 0
31 -1 25 -3 -7 -3 -13 -9 -13 -15 0 -14 35 -5 36 10 1 6 2 13 3 15 5 8 101 5
107 -5z m451 6 c-3 -3 -12 -4 -19 -1 -8 3 -5 6 6 6 11 1 17 -2 13 -5z m288
-65 c11 -16 1 -19 -13 -3 -7 8 -8 14 -3 14 5 0 13 -5 16 -11z m-71 -28 c4 -5
-1 -8 -9 -7 -21 3 -31 16 -12 16 9 0 18 -4 21 -9z m93 -52 c-23 -38 -58 -8
-37 31 10 18 12 18 29 3 16 -13 17 -19 8 -34z m115 -3 c-3 -5 -9 -1 -12 10 -4
10 -5 23 -2 28 3 5 9 1 12 -10 4 -10 5 -23 2 -28z"/>
<path d="M2029 2523 c-13 -16 -12 -17 4 -4 9 7 17 15 17 17 0 8 -8 3 -21 -13z"/>
<path d="M1537 2719 c4 -13 8 -18 11 -10 2 7 -1 18 -6 23 -8 8 -9 4 -5 -13z"/>
<path d="M1686 2704 c-9 -24 -2 -26 12 -4 7 11 8 20 3 20 -5 0 -12 -7 -15 -16z"/>
<path d="M710 2685 c0 -14 40 -43 46 -34 3 6 -2 17 -12 24 -19 15 -34 19 -34
10z"/>
<path d="M2152 2613 c6 -7 17 -13 24 -13 8 0 14 6 14 13 0 6 -11 12 -24 12
-18 0 -22 -3 -14 -12z"/>
<path d="M2280 2570 c0 -5 7 -10 15 -10 8 0 15 5 15 10 0 6 -7 10 -15 10 -8 0
-15 -4 -15 -10z"/>
<path d="M1136 2542 c-3 -2 -2 -10 0 -17 3 -7 -2 -15 -10 -18 -9 -4 -16 -16
-16 -28 0 -20 3 -18 30 12 16 19 30 39 30 45 0 10 -26 15 -34 6z"/>
<path d="M590 2519 c0 -5 5 -7 10 -4 6 3 10 8 10 11 0 2 -4 4 -10 4 -5 0 -10
-5 -10 -11z"/>
<path d="M1081 2504 c0 -11 3 -14 6 -6 3 7 2 16 -1 19 -3 4 -6 -2 -5 -13z"/>
<path d="M1000 2475 c0 -8 2 -15 4 -15 2 0 6 7 10 15 3 8 1 15 -4 15 -6 0 -10
-7 -10 -15z"/>
<path d="M1186 2481 c-4 -7 -5 -15 -2 -18 9 -9 19 4 14 18 -4 11 -6 11 -12 0z"/>
<path d="M1131 2442 c-6 -10 -8 -27 -5 -38 4 -14 -3 -23 -26 -32 -31 -14 -36
-27 -20 -52 8 -13 10 -13 10 2 0 9 9 19 19 23 10 3 22 17 25 31 4 15 11 22 19
19 7 -4 4 0 -5 8 -24 19 -23 30 2 17 16 -9 20 -8 20 6 0 11 -5 14 -16 10 -14
-5 -15 -4 -4 9 8 10 9 15 2 15 -6 0 -16 -8 -21 -18z"/>
<path d="M1049 2422 c-15 -13 -19 -21 -11 -26 7 -4 15 -1 18 8 3 8 12 12 20 9
10 -4 12 0 8 11 -8 20 -7 20 -35 -2z"/>
<path d="M1200 2381 c0 -12 5 -21 10 -21 6 0 10 6 10 14 0 8 -4 18 -10 21 -5
3 -10 -3 -10 -14z"/>
<path d="M1221 2331 c-8 -5 -9 -11 -3 -15 5 -3 12 1 16 9 6 17 6 18 -13 6z"/>
<path d="M2300 2330 c0 -5 5 -10 10 -10 6 0 10 5 10 10 0 6 -4 10 -10 10 -5 0
-10 -4 -10 -10z"/>
<path d="M2386 2298 c3 -4 9 -8 15 -8 5 0 9 4 9 8 0 5 -7 9 -15 9 -8 0 -12 -4
-9 -9z"/>
<path d="M1243 2274 c-7 -7 -13 -21 -13 -31 0 -16 1 -16 16 -1 9 8 14 22 12
31 -2 13 -5 13 -15 1z"/>
<path d="M1670 2281 c0 -6 4 -13 10 -16 6 -3 7 1 4 9 -7 18 -14 21 -14 7z"/>
<path d="M1754 2275 c-10 -8 -14 -15 -8 -15 5 0 19 7 30 15 10 8 14 15 8 15
-5 0 -19 -7 -30 -15z"/>
<path d="M2059 2288 c-9 -17 -3 -48 8 -48 10 0 11 5 4 19 -6 10 -7 21 -4 25 3
3 3 6 0 6 -4 0 -8 -1 -8 -2z"/>
<path d="M1517 2260 c-4 -17 -2 -18 14 -9 22 11 25 29 5 29 -7 0 -16 -9 -19
-20z"/>
<path d="M1290 2246 c-15 -12 -24 -29 -22 -41 2 -15 1 -17 -6 -6 -6 8 -12 9
-16 3 -3 -5 1 -13 10 -16 22 -8 24 -8 24 7 0 8 11 20 24 27 14 7 27 19 30 26
8 22 -19 22 -44 0z"/>
<path d="M1130 2251 c0 -5 -8 -12 -17 -14 -15 -4 -15 -5 2 -6 11 0 29 6 39 14
19 15 19 15 -2 15 -12 0 -22 -4 -22 -9z"/>
<path d="M1194 2239 c-3 -6 -1 -16 5 -22 8 -8 11 -5 11 11 0 24 -5 28 -16 11z"/>
<path d="M2027 2207 c-3 -7 3 -13 14 -13 13 0 15 3 7 13 -6 7 -12 13 -13 13
-2 0 -5 -6 -8 -13z"/>
<path d="M2096 2207 c3 -10 9 -15 12 -12 3 3 0 11 -7 18 -10 9 -11 8 -5 -6z"/>
<path d="M1436 2194 c-18 -18 -20 -24 -6 -24 5 0 14 9 20 20 13 24 7 26 -14 4z"/>
<path d="M1343 2173 c0 -9 7 -13 19 -10 10 3 15 1 12 -5 -4 -5 -16 -8 -28 -6
-17 3 -22 -1 -24 -16 0 -11 2 -16 6 -11 4 6 18 12 32 13 29 5 26 2 34 29 6 19
3 22 -22 21 -18 -1 -29 -6 -29 -15z"/>
<path d="M1171 2164 c0 -11 3 -14 6 -6 3 7 2 16 -1 19 -3 4 -6 -2 -5 -13z"/>
<path d="M1430 2139 c0 -5 5 -7 10 -4 6 3 10 8 10 11 0 2 -4 4 -10 4 -5 0 -10
-5 -10 -11z"/>
<path d="M2044 2135 c-4 -8 -10 -12 -15 -9 -5 3 -9 1 -9 -4 0 -6 -9 -8 -20 -5
-11 3 -20 1 -20 -5 0 -6 14 -14 32 -17 18 -4 40 -12 50 -18 25 -16 34 0 13 23
-10 11 -13 20 -7 20 7 0 12 -6 12 -12 0 -9 4 -8 10 2 7 11 5 19 -7 28 -22 16
-32 15 -39 -3z"/>
<path d="M2175 2140 c-3 -5 -1 -10 4 -10 6 0 11 5 11 10 0 6 -2 10 -4 10 -3 0
-8 -4 -11 -10z"/>
<path d="M1356 2114 c-3 -7 3 -15 12 -19 9 -3 13 -3 9 1 -4 4 0 12 9 18 13 10
13 12 -5 12 -11 0 -23 -6 -25 -12z"/>
<path d="M2467 2033 c-4 -6 2 -21 13 -33 11 -13 20 -28 20 -34 0 -6 5 -5 13 3
10 10 8 14 -6 22 -10 6 -22 20 -26 32 -4 11 -10 16 -14 10z"/>
<path d="M2530 1970 c0 -5 5 -10 11 -10 5 0 7 5 4 10 -3 6 -8 10 -11 10 -2 0
-4 -4 -4 -10z"/>
<path d="M2557 1923 c3 -10 11 -22 18 -28 6 -5 14 -17 18 -25 4 -13 6 -12 6 1
1 9 -6 22 -14 29 -8 7 -15 19 -15 26 0 8 -4 14 -10 14 -5 0 -7 -8 -3 -17z"/>
<path d="M2634 1815 c1 -8 6 -18 11 -22 4 -4 5 -3 2 4 -4 6 -2 13 5 15 8 3 6
6 -4 10 -10 4 -15 2 -14 -7z"/>
<path d="M3352 1805 c0 -16 2 -22 5 -12 2 9 2 23 0 30 -3 6 -5 -1 -5 -18z"/>
<path d="M2670 1769 c0 -5 5 -7 10 -4 6 3 10 8 10 11 0 2 -4 4 -10 4 -5 0 -10
-5 -10 -11z"/>
<path d="M2701 1708 c21 -38 29 -46 29 -29 0 6 -11 23 -25 38 l-26 28 22 -37z"/>
<path d="M1067 1654 c-8 -8 3 -34 14 -34 11 0 12 27 0 34 -4 3 -11 3 -14 0z"/>
<path d="M3337 1584 c-10 -13 -15 -29 -12 -34 3 -6 1 -10 -4 -10 -6 0 -11 -5
-11 -11 0 -6 -8 -22 -19 -35 -14 -18 -19 -41 -19 -89 0 -36 3 -65 8 -65 11 0
20 26 21 58 0 23 2 24 8 8 7 -18 8 -19 14 -2 8 20 38 198 34 202 -1 1 -10 -9
-20 -22z"/>
<path d="M1110 1586 c7 -7 14 -6 21 1 9 9 7 12 -9 10 -14 -1 -18 -5 -12 -11z"/>
<path d="M1490 1531 c0 -6 4 -13 10 -16 6 -3 7 1 4 9 -7 18 -14 21 -14 7z"/>
<path d="M2580 1445 c0 -21 5 -32 15 -32 10 0 12 5 5 16 -6 11 -3 22 7 33 14
15 13 17 -6 15 -17 -1 -21 -8 -21 -32z"/>
<path d="M2610 1443 c0 -26 16 -47 29 -39 15 10 14 25 -3 42 -19 19 -26 18
-26 -3z"/>
<path d="M1566 1425 c-3 -8 -1 -15 4 -15 6 0 10 7 10 15 0 8 -2 15 -4 15 -2 0
-6 -7 -10 -15z"/>
<path d="M1720 1433 c0 -7 -9 -13 -19 -13 -10 0 -21 -7 -25 -15 -3 -8 0 -14 7
-12 7 1 13 -10 15 -25 5 -39 26 -35 41 8 9 24 16 32 21 24 6 -9 9 -10 15 0 8
14 -14 32 -28 23 -5 -3 -13 1 -18 8 -6 10 -9 11 -9 2z"/>
<path d="M1479 1400 c-16 -14 -20 -23 -12 -26 7 -3 10 -13 7 -22 -3 -9 4 0 16
21 26 46 22 55 -11 27z"/>
<path d="M2642 1370 c-15 -25 -15 -40 0 -40 6 0 8 3 5 7 -4 3 1 12 11 19 12 9
14 16 7 23 -7 7 -14 4 -23 -9z"/>
<path d="M2290 1301 c0 -5 5 -13 10 -16 6 -3 10 -2 10 4 0 5 -4 13 -10 16 -5
3 -10 2 -10 -4z"/>
<path d="M3285 1283 c-5 -13 -9 -14 -12 -5 -7 17 -34 -20 -30 -40 2 -7 2 -10
0 -6 -6 11 -33 -18 -33 -34 0 -10 2 -10 9 1 12 19 24 -38 15 -73 -3 -14 -4
-26 -1 -26 8 0 70 190 64 196 -2 3 -8 -3 -12 -13z"/>
<path d="M1583 1235 c-1 -37 5 -43 26 -22 11 10 12 8 6 -10 -4 -14 -2 -23 4
-23 6 0 11 -6 11 -14 0 -12 4 -12 29 0 25 13 29 20 26 46 -4 32 -25 54 -35 38
-7 -11 -50 -1 -50 11 0 5 -4 9 -8 9 -4 0 -8 -16 -9 -35z"/>
<path d="M1560 1240 c0 -5 5 -10 10 -10 6 0 10 5 10 10 0 6 -4 10 -10 10 -5 0
-10 -4 -10 -10z"/>
<path d="M165 1192 c2 -30 11 -59 20 -68 23 -23 27 -13 8 21 -9 17 -20 46 -24
65 -7 29 -8 26 -4 -18z"/>
<path d="M1365 1229 c-4 -6 -4 -13 -1 -16 3 -4 6 -1 6 6 0 8 5 9 19 1 30 -16
46 -13 31 5 -14 17 -46 20 -55 4z"/>
<path d="M1300 1180 c0 -5 5 -10 11 -10 5 0 7 5 4 10 -3 6 -8 10 -11 10 -2 0
-4 -4 -4 -10z"/>
<path d="M1815 1183 c-43 -5 -57 -12 -50 -23 3 -5 15 -6 28 -1 15 6 26 4 35
-6 11 -11 17 -12 29 -2 11 10 16 10 22 1 5 -9 12 -8 27 4 17 14 17 15 1 10
-10 -3 -28 0 -40 7 -12 7 -35 12 -52 10z"/>
<path d="M2430 1170 c-13 -8 -12 -10 3 -10 9 0 17 5 17 10 0 12 -1 12 -20 0z"/>
<path d="M1676 1145 c4 -8 10 -15 15 -15 4 0 6 7 3 15 -4 8 -10 15 -15 15 -4
0 -6 -7 -3 -15z"/>
<path d="M2800 1145 c-7 -8 -10 -22 -6 -30 4 -10 2 -14 -5 -9 -7 4 -10 1 -7
-7 8 -23 32 -16 46 13 8 15 20 24 27 22 7 -3 15 1 18 9 7 19 -57 21 -73 2z"/>
<path d="M2290 1130 c0 -6 7 -10 15 -10 8 0 15 2 15 4 0 2 -7 6 -15 10 -8 3
-15 1 -15 -4z"/>
<path d="M2370 1131 c0 -15 27 -20 39 -8 18 18 13 -5 -9 -40 -11 -19 -14 -30
-6 -27 13 5 48 73 37 75 -3 0 -18 3 -33 5 -16 3 -28 1 -28 -5z"/>
<path d="M1510 1111 c0 -20 4 -26 16 -23 14 3 39 -26 30 -35 -3 -3 -6 -1 -6 5
0 7 -5 12 -11 12 -8 0 -8 -4 -1 -13 14 -16 66 -21 56 -5 -4 7 -3 8 5 4 6 -4
20 -4 32 -1 16 5 18 9 8 21 -10 12 -14 12 -21 2 -6 -10 -12 -9 -24 7 -8 11
-24 19 -35 17 -11 -2 -27 2 -35 8 -10 9 -14 9 -14 1z"/>
<path d="M1841 1084 c0 -11 3 -14 6 -6 3 7 2 16 -1 19 -3 4 -6 -2 -5 -13z"/>
<path d="M1866 1081 c-4 -5 1 -8 9 -7 21 3 31 16 12 16 -9 0 -18 -4 -21 -9z"/>
<path d="M2274 1063 c2 -9 12 -20 24 -24 29 -11 27 2 -2 23 -22 16 -24 16 -22
1z"/>
<path d="M200 1061 c0 -5 5 -13 10 -16 6 -3 10 -2 10 4 0 5 -4 13 -10 16 -5 3
-10 2 -10 -4z"/>
<path d="M3182 1008 c-14 -14 -16 -28 -3 -28 9 0 24 30 18 36 -2 2 -9 -2 -15
-8z"/>
<path d="M2371 1008 c-2 -18 20 -58 31 -58 8 0 9 3 3 8 -6 4 -16 18 -22 32 -6
14 -12 22 -12 18z"/>
<path d="M2515 1000 c3 -5 8 -10 11 -10 2 0 4 5 4 10 0 6 -5 10 -11 10 -5 0
-7 -4 -4 -10z"/>
<path d="M1798 963 c7 -3 16 -2 19 1 4 3 -2 6 -13 5 -11 0 -14 -3 -6 -6z"/>
<path d="M3121 880 c-23 -44 -66 -113 -96 -155 -30 -41 -50 -75 -45 -75 11 0
128 176 164 248 43 85 24 70 -23 -18z"/>
<path d="M2390 905 c0 -8 6 -15 13 -15 6 0 13 -12 14 -26 0 -15 9 -34 18 -43
17 -15 17 -14 11 9 -4 14 -10 34 -13 46 -6 26 -43 51 -43 29z"/>
<path d="M2307 875 c-4 -8 -1 -17 5 -21 7 -4 8 -3 4 4 -4 7 -2 12 3 12 6 0 11
5 11 10 0 15 -17 12 -23 -5z"/>
<path d="M2640 865 c0 -5 5 -17 10 -25 5 -8 10 -10 10 -5 0 6 -5 17 -10 25 -5
8 -10 11 -10 5z"/>
<path d="M2450 849 c0 -5 5 -7 10 -4 6 3 10 8 10 11 0 2 -4 4 -10 4 -5 0 -10
-5 -10 -11z"/>
<path d="M2607 843 c-4 -3 -7 -11 -7 -17 0 -6 5 -5 12 2 6 6 9 14 7 17 -3 3
-9 2 -12 -2z"/>
<path d="M2590 790 c0 -5 5 -10 10 -10 6 0 10 5 10 10 0 6 -4 10 -10 10 -5 0
-10 -4 -10 -10z"/>
<path d="M2641 779 c-39 -21 -61 -39 -45 -39 16 0 73 30 80 41 10 17 1 16 -35
-2z"/>
<path d="M2542 750 c0 -14 2 -19 5 -12 2 6 2 18 0 25 -3 6 -5 1 -5 -13z"/>
<path d="M2835 717 c-19 -42 -29 -77 -21 -77 7 0 37 61 46 93 13 41 -2 32 -25
-16z"/>
<path d="M2438 745 c-13 -13 4 -35 26 -34 16 1 17 2 4 6 -9 2 -18 11 -20 20
-2 8 -6 12 -10 8z"/>
<path d="M2260 729 c0 -5 5 -7 10 -4 6 3 10 8 10 11 0 2 -4 4 -10 4 -5 0 -10
-5 -10 -11z"/>
<path d="M2363 696 c-30 -14 -29 -26 2 -26 14 0 25 5 25 10 0 6 7 10 16 10 8
0 12 5 9 10 -8 12 -23 11 -52 -4z"/>
<path d="M2021 691 c-11 -7 -9 -11 8 -20 14 -8 21 -21 21 -40 0 -25 -3 -27
-28 -23 -33 4 -64 -20 -56 -43 4 -8 1 -15 -7 -15 -7 0 -9 -3 -6 -7 4 -3 2 -12
-4 -19 -17 -21 -3 -44 27 -44 22 0 25 3 20 23 -4 18 2 31 24 52 27 26 45 24
19 -2 -9 -9 -7 -10 10 -6 17 4 21 1 21 -21 0 -23 -4 -26 -25 -22 -16 3 -25 0
-25 -8 0 -7 8 -13 18 -13 24 0 54 28 47 45 -6 16 13 44 25 37 5 -3 6 4 3 15
-6 22 -18 26 -29 8 -12 -19 -23 24 -12 45 7 14 5 24 -7 37 -13 14 -13 19 -3
23 8 3 5 6 -7 6 -11 0 -26 -3 -34 -8z"/>
<path d="M2782 645 c-15 -32 -15 -38 -2 -30 13 8 13 -1 -1 -28 -10 -21 -10
-21 6 -2 8 11 13 26 10 33 -3 7 0 22 5 33 6 10 7 19 2 19 -5 0 -14 -11 -20
-25z"/>
<path d="M2327 613 c-4 -3 -7 -18 -6 -32 1 -26 1 -25 10 3 9 31 7 41 -4 29z"/>
<path d="M2530 600 c-8 -5 -11 -12 -8 -16 4 -3 14 1 23 10 18 17 9 21 -15 6z"/>
<path d="M1921 554 c0 -11 3 -14 6 -6 3 7 2 16 -1 19 -3 4 -6 -2 -5 -13z"/>
<path d="M2135 520 c-3 -5 -1 -10 4 -10 6 0 11 5 11 10 0 6 -2 10 -4 10 -3 0
-8 -4 -11 -10z"/>
<path d="M2687 523 c-4 -3 -7 -11 -7 -17 0 -6 5 -5 12 2 6 6 9 14 7 17 -3 3
-9 2 -12 -2z"/>
<path d="M2845 505 c-16 -13 -25 -24 -19 -25 6 0 21 11 34 25 30 32 24 32 -15
0z"/>
<path d="M1991 471 c-7 -5 -22 -6 -34 -3 -11 3 -18 1 -14 -4 3 -6 2 -16 -3
-24 -5 -8 -3 -21 3 -32 15 -23 31 -24 23 -1 -4 9 -1 20 6 25 20 12 31 9 24 -7
-3 -8 -1 -15 3 -15 11 0 31 56 24 64 -8 8 -15 7 -32 -3z"/>
<path d="M2550 465 c-7 -9 -11 -18 -8 -20 3 -3 11 1 18 10 7 9 11 18 8 20 -3
3 -11 -1 -18 -10z"/>
<path d="M2715 394 c-96 -77 -112 -95 -39 -45 53 36 126 101 113 101 -2 0 -35
-25 -74 -56z"/>
<path d="M2000 390 c0 -30 15 -36 34 -16 14 14 15 18 4 14 -9 -4 -21 -1 -27 5
-8 8 -11 7 -11 -3z"/>
<path d="M2419 378 c-8 -7 -21 -21 -28 -31 -12 -15 -12 -17 3 -11 9 3 16 14
16 23 0 12 2 13 9 3 6 -10 13 -8 32 7 13 11 18 20 12 21 -7 0 -13 -4 -13 -10
0 -5 -5 -10 -11 -10 -5 0 -7 5 -4 10 8 14 2 13 -16 -2z"/>
<path d="M1867 353 c-3 -7 -3 -15 1 -50 1 -7 9 -13 17 -13 12 0 13 4 5 19 -5
11 -7 27 -4 35 6 16 -11 23 -19 9z"/>
<path d="M2548 320 c-20 -11 -40 -24 -43 -30 -10 -17 20 -11 43 8 11 9 29 22
39 29 29 19 1 14 -39 -7z"/>
<path d="M2000 290 c0 -5 5 -10 10 -10 6 0 10 5 10 10 0 6 -4 10 -10 10 -5 0
-10 -4 -10 -10z"/>
<path d="M2425 261 c-10 -18 17 -23 33 -7 15 15 15 16 -5 16 -12 0 -24 -4 -28
-9z"/>
<path d="M2016 237 c3 -10 9 -15 12 -12 3 3 0 11 -7 18 -10 9 -11 8 -5 -6z"/>
<path d="M2018 193 c-10 -2 -18 -8 -18 -13 0 -5 -9 -12 -20 -15 -28 -9 -13
-28 15 -21 13 3 25 3 28 -2 2 -4 2 -1 0 6 -1 7 2 22 7 33 6 10 9 18 8 18 -2
-1 -11 -3 -20 -6z"/>
</g>
</svg>
